<svg width="104" height="104" viewBox="0 0 104 104" fill="none" xmlns="http://www.w3.org/2000/svg">
<rect x="4" y="4" width="32" height="32" fill="#07003C"/>
<rect x="68" y="68" width="32" height="32" fill="#07003C"/>
<rect x="4" y="68" width="32" height="32" fill="#07003C"/>
<rect x="68" y="4" width="32" height="32" fill="#07003C"/>
<rect x="40" y="12" width="24" height="16" fill="#07003C"/>
<rect x="92" y="40" width="24" height="16" transform="rotate(90 92 40)" fill="#07003C"/>
<rect width="24" height="16" transform="matrix(-4.37114e-08 -1 -1 4.37114e-08 28 64)" fill="#07003C"/>
<rect x="64" y="92" width="24" height="16" transform="rotate(-180 64 92)" fill="#07003C"/>
<rect width="4" height="4" transform="matrix(-1 0 0 1 40 32)" fill="#D1B500"/>
<rect width="4" height="4" transform="matrix(-1 0 0 1 4 32)" fill="#D1B500"/>
<rect width="4" height="4" transform="matrix(4.37114e-08 -1 -1 -4.37114e-08 8 40)" fill="#D1B500"/>
<rect width="4" height="4" transform="matrix(-1 0 0 1 40 28)" fill="#D1B500"/>
<rect width="4" height="4" transform="matrix(-1 0 0 1 4 28)" fill="#D1B500"/>
<rect width="4" height="4" transform="matrix(4.37114e-08 -1 -1 -4.37114e-08 12 40)" fill="#D1B500"/>
<rect width="4" height="4" transform="matrix(4.37114e-08 -1 -1 -4.37114e-08 12 4)" fill="#D1B500"/>
<rect width="4" height="4" transform="matrix(4.37114e-08 -1 -1 -4.37114e-08 8 4)" fill="#D1B500"/>
<rect width="4" height="4" transform="matrix(-1 0 0 1 40 24)" fill="#D1B500"/>
<rect width="4" height="4" transform="matrix(-1 0 0 1 4 24)" fill="#D1B500"/>
<rect width="4" height="4" transform="matrix(4.37114e-08 -1 -1 -4.37114e-08 16 40)" fill="#D1B500"/>
<rect width="4" height="4" transform="matrix(4.37114e-08 -1 -1 -4.37114e-08 16 4)" fill="#D1B500"/>
<rect width="4" height="4" transform="matrix(-1 0 0 1 40 20)" fill="#D1B500"/>
<rect width="4" height="4" transform="matrix(-1 0 0 1 4 20)" fill="#D1B500"/>
<rect width="4" height="4" transform="matrix(4.37114e-08 -1 -1 -4.37114e-08 20 40)" fill="#D1B500"/>
<rect width="4" height="4" transform="matrix(4.37114e-08 -1 -1 -4.37114e-08 20 4)" fill="#D1B500"/>
<rect width="4" height="4" transform="matrix(-1 0 0 1 40 16)" fill="#D1B500"/>
<rect width="4" height="4" transform="matrix(-1 0 0 1 4 16)" fill="#D1B500"/>
<rect width="4" height="4" transform="matrix(4.37114e-08 -1 -1 -4.37114e-08 24 40)" fill="#D1B500"/>
<rect width="4" height="4" transform="matrix(4.37114e-08 -1 -1 -4.37114e-08 24 4)" fill="#D1B500"/>
<rect width="4" height="4" transform="matrix(-1 0 0 1 40 12)" fill="#D1B500"/>
<rect width="4" height="4" transform="matrix(-1 0 0 1 4 12)" fill="#D1B500"/>
<rect width="4" height="4" transform="matrix(4.37114e-08 -1 -1 -4.37114e-08 28 40)" fill="#D1B500"/>
<rect width="4" height="4" transform="matrix(4.37114e-08 -1 -1 -4.37114e-08 28 4)" fill="#D1B500"/>
<rect width="4" height="4" transform="matrix(-1 0 0 1 40 8)" fill="#D1B500"/>
<rect width="4" height="4" transform="matrix(-1 0 0 1 4 8)" fill="#D1B500"/>
<rect width="4" height="4" transform="matrix(4.37114e-08 -1 -1 -4.37114e-08 32 40)" fill="#D1B500"/>
<rect width="4" height="4" transform="matrix(4.37114e-08 -1 -1 -4.37114e-08 32 4)" fill="#D1B500"/>
<rect width="4" height="4" transform="matrix(-1 0 0 1 40 4)" fill="#D1B500"/>
<rect width="4" height="4" transform="matrix(-1 0 0 1 4 4)" fill="#D1B500"/>
<rect width="4" height="4" transform="matrix(4.37114e-08 -1 -1 -4.37114e-08 36 40)" fill="#D1B500"/>
<rect width="4" height="4" transform="matrix(4.37114e-08 -1 -1 -4.37114e-08 36 36)" fill="#D1B500"/>
<rect width="4" height="4" transform="matrix(4.37114e-08 -1 -1 -4.37114e-08 32 32)" fill="#D1B500"/>
<rect width="4" height="4" transform="matrix(4.37114e-08 -1 -1 -4.37114e-08 28 28)" fill="#D1B500"/>
<rect width="4" height="4" transform="matrix(4.37114e-08 -1 -1 -4.37114e-08 24 24)" fill="#D1B500"/>
<rect width="4" height="4" transform="matrix(4.37114e-08 -1 -1 -4.37114e-08 20 20)" fill="#D1B500"/>
<rect width="4" height="4" transform="matrix(4.37114e-08 -1 -1 -4.37114e-08 36 8)" fill="#D1B500"/>
<rect width="4" height="4" transform="matrix(4.37114e-08 -1 -1 -4.37114e-08 32 12)" fill="#D1B500"/>
<rect width="4" height="4" transform="matrix(4.37114e-08 -1 -1 -4.37114e-08 28 16)" fill="#D1B500"/>
<rect width="4" height="4" transform="matrix(4.37114e-08 -1 -1 -4.37114e-08 24 20)" fill="#D1B500"/>
<rect width="4" height="4" transform="matrix(4.37114e-08 -1 -1 -4.37114e-08 20 24)" fill="#D1B500"/>
<rect width="4" height="4" transform="matrix(4.37114e-08 -1 -1 -4.37114e-08 16 28)" fill="#D1B500"/>
<rect width="4" height="4" transform="matrix(4.37114e-08 -1 -1 -4.37114e-08 12 32)" fill="#D1B500"/>
<rect width="4" height="4" transform="matrix(4.37114e-08 -1 -1 -4.37114e-08 8 36)" fill="#D1B500"/>
<rect width="4" height="4" transform="matrix(4.37114e-08 -1 -1 -4.37114e-08 16 16)" fill="#D1B500"/>
<rect width="4" height="4" transform="matrix(4.37114e-08 -1 -1 -4.37114e-08 12 12)" fill="#D1B500"/>
<rect width="4" height="4" transform="matrix(4.37114e-08 -1 -1 -4.37114e-08 8 8)" fill="#D1B500"/>
<rect width="4" height="4" transform="matrix(4.37114e-08 -1 -1 -4.37114e-08 36 4)" fill="#D1B500"/>
<path d="M72 68V72H68V96H72V100H96V96H100V72H96V68H72ZM76 96H72V92H76V96ZM96 96H92V92H96V96ZM80 92H76V88H80V92ZM92 92H88V88H92V92ZM88 88H80V80H88V88ZM80 80H76V76H80V80ZM92 80H88V76H92V80ZM76 76H72V72H76V76ZM96 76H92V72H96V76ZM104 68V100H100V104H68V100H64V68H68V64H100V68H104Z" fill="#D1B500"/>
<path d="M8 68V72H4V96H8V100H32V96H36V72H32V76H28V72H32V68H8ZM12 96H8V92H12V96ZM32 96H28V92H32V96ZM16 92H12V88H16V92ZM28 92H24V88H28V92ZM24 88H16V80H24V88ZM16 80H12V76H16V80ZM28 80H24V76H28V80ZM12 76H8V72H12V76ZM40 100H36V104H4V100H0V68H4V64H36V68H40V100Z" fill="#D1B500"/>
<path d="M72 4V8H68V32H72V36H96V32H100V8H96V12H92V8H96V4H72ZM76 32H72V28H76V32ZM96 32H92V28H96V32ZM80 28H76V24H80V28ZM92 28H88V24H92V28ZM88 24H80V16H88V24ZM80 16H76V12H80V16ZM92 16H88V12H92V16ZM76 12H72V8H76V12ZM104 36H100V40H68V36H64V4H68V0H100V4H104V36Z" fill="#D1B500"/>
<path d="M64 32H40V28H60V24H64V32ZM60 24H56V20H60V24ZM56 20H52V16H56V20ZM64 12H52V16H48V12H40V8H64V12Z" fill="#D1B500"/>
<path d="M72 64L72 40L76 40L76 60L80 60L80 64L72 64ZM80 60L80 56L84 56L84 60L80 60ZM84 56L84 52L88 52L88 56L84 56ZM92 64L92 52L88 52L88 48L92 48L92 40L96 40L96 64L92 64Z" fill="#D1B500"/>
<path d="M8 40L8 64L12 64L12 44L16 44L16 40L8 40ZM16 44L16 48L20 48L20 44L16 44ZM20 48L20 52L24 52L24 48L20 48ZM28 40L28 52L24 52L24 56L28 56L28 64L32 64L32 40L28 40Z" fill="#D1B500"/>
<path d="M40 72L64 72L64 76L44 76L44 80L40 80L40 72ZM44 80L48 80L48 84L44 84L44 80ZM48 84L52 84L52 88L48 88L48 84ZM40 92L52 92L52 88L56 88L56 92L64 92L64 96L40 96L40 92Z" fill="#D1B500"/>
</svg>
